<svg id="f5010b11-4e0c-43f6-b61f-e953bee4d1ca" data-name="Layer 1" xmlns="http://www.w3.org/2000/svg" viewBox="0 0 996.68 212.46"><path d="M349.51,348.38a22.81,22.81,0,1,1-34.89-10.74l-.14-.39-52-154.87H236.8a7.94,7.94,0,0,1-7.94-7.93h0a8,8,0,0,1,7.94-7.94h30.83a7.89,7.89,0,0,1,5.61,2.32,9,9,0,0,1,2.18,2.95L289.07,212l187.05-.24c7.06,0,7.55,5.08,6.14,8.81L476,240.26c-2.9,9.1-6,17.77-8.85,26.52L454,306.28c-1.4,4.21-2.13,9.14-7.11,10.26a52.71,52.71,0,0,1-7.84.38l-114.41-.05,4.74,16.46h98.1A22.82,22.82,0,1,1,406,348.38H349.51Z" transform="translate(-228.86 -166.51)" style="fill:#1b0c43;fill-rule:evenodd"/><path d="M339.38,239a42.31,42.31,0,0,0,3.78,8.8c1.27,2.2,13.35,22.44,35.92,22.86,22.38.41,35.18-19,37.42-22.64a45.25,45.25,0,0,0,4.29-9,40.71,40.71,0,1,1-81.41,0Z" transform="translate(-228.86 -166.51)" style="fill:#febe10"/><path d="M536.83,248.51l.4,16.88-.4-2.78a45.8,45.8,0,0,1,14.6-13.6,38.06,38.06,0,0,1,19.36-4.87q10.51,0,17,4.07t7.45,13.21l-.4.19a57,57,0,0,1,14.79-12.5,33.2,33.2,0,0,1,17-5q12.9,0,19.65,7.25t5.56,18.76l-7.94,65.13h-27.6l6.55-53.61a27,27,0,0,0-.69-9.43q-1.1-3.67-6.85-4.07a17.22,17.22,0,0,0-11.91,4.66A34.21,34.21,0,0,0,595,284.75a54.16,54.16,0,0,0-4.17,15l-4.37,35.54h-27.8l6.56-53.61a22.57,22.57,0,0,0-1-9.43c-.92-2.45-3.31-3.81-7.14-4.07a16.66,16.66,0,0,0-11.62,4.66,34.19,34.19,0,0,0-8.14,11.82,55.13,55.13,0,0,0-4.07,14.69l-4.37,35.94H501.1l10.52-86.77Z" transform="translate(-228.86 -166.51)" style="fill:#cb1f40"/><path d="M675,248.51h27.8l-10.72,86.77h-27.8Zm1.79-30.58a14.6,14.6,0,0,1,4.37-10.72q4.36-4.36,11.51-4.37a19.74,19.74,0,0,1,9.93,2.88q5,2.88,5,10a14.68,14.68,0,0,1-4.36,10.62c-2.92,3-6.75,4.47-11.52,4.47a19.64,19.64,0,0,1-9.93-2.88Q676.76,225.08,676.77,217.93Z" transform="translate(-228.86 -166.51)" style="fill:#cb1f40"/><path d="M749.16,248.51l.59,17.27-1-3.17a42.14,42.14,0,0,1,14.79-13.21,43.76,43.76,0,0,1,21.35-5.06q12.3,0,19.56,7.25t6.25,18.76l-7.94,64.93H775l6.75-54.6q.4-5.76-2.08-9.24T770.4,268a18.25,18.25,0,0,0-11.61,4.17,31,31,0,0,0-8.64,11.31,54.56,54.56,0,0,0-4.56,16.48l-4.37,35.35h-27.8l10.52-86.77Z" transform="translate(-228.86 -166.51)" style="fill:#cb1f40"/><path d="M834.31,248.51h27.8l-10.72,86.77h-27.8Zm1.79-30.58a14.6,14.6,0,0,1,4.37-10.72q4.37-4.36,11.51-4.37a19.74,19.74,0,0,1,9.93,2.88q5,2.88,5,10a14.69,14.69,0,0,1-4.37,10.62c-2.92,3-6.75,4.47-11.52,4.47a19.64,19.64,0,0,1-9.93-2.88Q836.1,225.08,836.1,217.93Z" transform="translate(-228.86 -166.51)" style="fill:#cb1f40"/><path d="M947.92,329.72a50.54,50.54,0,0,1-14.2,5.95,62.83,62.83,0,0,1-16.18,2.19,63.65,63.65,0,0,1-13.1-1.69A51.36,51.36,0,0,1,889.15,330a36.76,36.76,0,0,1-12.61-12.7q-5.06-8.24-5.06-21.15a53.14,53.14,0,0,1,3-17.27,51.76,51.76,0,0,1,8.93-16.08A44,44,0,0,1,898.48,251q9.13-4.47,21.64-4.47,13.3,0,22.34,4a48.11,48.11,0,0,1,14.79,9.72L941.57,277.1a31.08,31.08,0,0,0-7.55-5.16,26,26,0,0,0-12.11-2.58A20.56,20.56,0,0,0,911,272.53a24.16,24.16,0,0,0-8.34,8.74,25.56,25.56,0,0,0-3.18,12.91,20.92,20.92,0,0,0,2.78,10.72,20.6,20.6,0,0,0,8,7.64,24.87,24.87,0,0,0,12.31,2.88,27.08,27.08,0,0,0,7.44-1,20.33,20.33,0,0,0,6.26-3Z" transform="translate(-228.86 -166.51)" style="fill:#cb1f40"/><path d="M997.1,337.26a30.37,30.37,0,0,1-16.68-4.76A37.87,37.87,0,0,1,967,318q-5.26-9.53-5.26-23a50.6,50.6,0,0,1,3.57-18.76,53.3,53.3,0,0,1,10.13-16.28,49.38,49.38,0,0,1,15.48-11.52,45.11,45.11,0,0,1,19.66-4.27,42.36,42.36,0,0,1,14.19,2,26.27,26.27,0,0,1,8.84,5.06,36.21,36.21,0,0,1,5.76,6.65L1037.6,262l4.37-13.5h25.81l-10.52,86.77h-27.8l2.19-18.87,1.58,6c-.26,0-1.19.76-2.78,2.28a50.26,50.26,0,0,1-6.85,5.27,48.38,48.38,0,0,1-11.11,5.26A44.38,44.38,0,0,1,997.1,337.26ZM1012.78,315a20,20,0,0,0,7.65-1.49,25.85,25.85,0,0,0,7.05-4.36,28.63,28.63,0,0,0,6-7.25l2.58-21.24a16.29,16.29,0,0,0-3.77-7.45,18.67,18.67,0,0,0-7-4.77,28.49,28.49,0,0,0-21,.7,23.58,23.58,0,0,0-7.85,6.15,24.79,24.79,0,0,0-4.46,8.05,26.43,26.43,0,0,0-1.39,8.24,26.08,26.08,0,0,0,2.78,12.4,19.66,19.66,0,0,0,7.84,8.14A23,23,0,0,0,1012.78,315Z" transform="translate(-228.86 -166.51)" style="fill:#cb1f40"/><path d="M1113.82,248.51l-.79,19.26a49.59,49.59,0,0,1,11.41-13,53.37,53.37,0,0,1,13.51-7.94,33.11,33.11,0,0,1,11.61-2.68l-4.76,27.8a26.63,26.63,0,0,0-17.08,3.18,34.82,34.82,0,0,0-12.11,11.51,35.74,35.74,0,0,0-5.56,14.69l-4.17,34h-27.6l10.53-86.77Z" transform="translate(-228.86 -166.51)" style="fill:#cb1f40"/><path d="M1181.27,210.39h27.79l-4.56,37.72h21L1223,269.75h-21l-8,65.53h-27.79l7.94-65.53h-13.5l2.58-21.64h13.5Z" transform="translate(-228.86 -166.51)" style="fill:#cb1f40"/></svg>